<?xml version="1.0" encoding="UTF-8" standalone="no"?>
<!-- Created with Inkscape (http://www.inkscape.org/) -->

<svg
   xmlns:dc="http://purl.org/dc/elements/1.1/"
   xmlns:cc="http://creativecommons.org/ns#"
   xmlns:rdf="http://www.w3.org/1999/02/22-rdf-syntax-ns#"
   xmlns:svg="http://www.w3.org/2000/svg"
   xmlns="http://www.w3.org/2000/svg"
   xmlns:sodipodi="http://sodipodi.sourceforge.net/DTD/sodipodi-0.dtd"
   xmlns:inkscape="http://www.inkscape.org/namespaces/inkscape"
   width="327.84375"
   height="350.64001"
   id="svg2"
   version="1.1"
   inkscape:version="0.48.5 r10040"
   sodipodi:docname="logo.svg">
  <title
     id="title3159">CAT-SOOP Logo</title>
  <defs
     id="defs4" />
  <sodipodi:namedview
     id="base"
     pagecolor="#ffffff"
     bordercolor="#666666"
     borderopacity="1.0"
     inkscape:pageopacity="0.0"
     inkscape:pageshadow="2"
     inkscape:zoom="0.35"
     inkscape:cx="-204.05462"
     inkscape:cy="-136.95771"
     inkscape:document-units="px"
     inkscape:current-layer="layer1"
     showgrid="false"
     fit-margin-top="0"
     fit-margin-left="0"
     fit-margin-right="0"
     fit-margin-bottom="0"
     inkscape:window-width="1276"
     inkscape:window-height="761"
     inkscape:window-x="0"
     inkscape:window-y="18"
     inkscape:window-maximized="0" />
  <metadata
     id="metadata7">
    <rdf:RDF>
      <cc:Work
         rdf:about="">
        <dc:format>image/svg+xml</dc:format>
        <dc:type
           rdf:resource="http://purl.org/dc/dcmitype/StillImage" />
        <dc:title>CAT-SOOP Logo</dc:title>
        <dc:creator>
          <cc:Agent>
            <dc:title>Adam Hartz</dc:title>
          </cc:Agent>
        </dc:creator>
        <cc:license
           rdf:resource="http://creativecommons.org/licenses/by-sa/3.0/" />
        <dc:date>2011</dc:date>
      </cc:Work>
      <cc:License
         rdf:about="http://creativecommons.org/licenses/by-sa/3.0/">
        <cc:permits
           rdf:resource="http://creativecommons.org/ns#Reproduction" />
        <cc:permits
           rdf:resource="http://creativecommons.org/ns#Distribution" />
        <cc:requires
           rdf:resource="http://creativecommons.org/ns#Notice" />
        <cc:requires
           rdf:resource="http://creativecommons.org/ns#Attribution" />
        <cc:permits
           rdf:resource="http://creativecommons.org/ns#DerivativeWorks" />
        <cc:requires
           rdf:resource="http://creativecommons.org/ns#ShareAlike" />
      </cc:License>
    </rdf:RDF>
  </metadata>
  <g
     inkscape:label="Layer 1"
     inkscape:groupmode="layer"
     id="layer1"
     transform="translate(-56.197479,-44.764469)">
    <g
       style="font-size:48px;font-style:normal;font-variant:normal;font-weight:bold;font-stretch:normal;text-align:center;line-height:110.00000238%;letter-spacing:0px;word-spacing:0px;text-anchor:middle;fill:#000000;fill-opacity:1;stroke:none;font-family:Latin Modern Mono;-inkscape-font-specification:Latin Modern Mono Bold"
       id="text2985">
      <path
         d="m 78.565479,80.380469 c 0,-0.383999 -0.192,-0.864 -0.336,-1.152 l -15.888,-33.168 c -0.24,-0.479999 -0.624001,-1.296 -1.68,-1.296 -0.959999,0 -1.68,0.816001 -1.68,1.68 0,0.384 0.192,0.864001 0.336,1.152 l 15.888,33.168 c 0.24,0.48 0.624001,1.296 1.68,1.296 0.959999,0 1.68,-0.816 1.68,-1.68"
         style=""
         id="path3029" />
      <path
         d="m 78.565479,99.244471 c 0,-0.864 -0.720001,-1.68 -1.68,-1.68 -1.055999,0 -1.392,0.72 -1.68,1.344 l -15.84,33.119999 c -0.335999,0.768 -0.384,0.768 -0.384,1.152 0,0.864 0.720001,1.68 1.68,1.68 1.055999,0 1.392001,-0.72 1.68,-1.344 l 15.84,-33.12 c 0.336,-0.767999 0.384,-0.768 0.384,-1.151999"
         style=""
         id="path3031" />
      <path
         d="m 204.65923,99.244471 c 0,-0.864 -0.72,-1.68 -1.68,-1.68 -1.056,0 -1.392,0.72 -1.68,1.344 l -15.84,33.119999 c -0.336,0.768 -0.384,0.768 -0.384,1.152 0,0.864 0.72,1.68 1.68,1.68 1.056,0 1.392,-0.72 1.68,-1.344 l 15.84,-33.12 c 0.336,-0.767999 0.384,-0.768 0.384,-1.151999"
         style=""
         id="path3033" />
      <path
         d="m 229.87798,133.18047 c 0,-0.384 -0.192,-0.864 -0.336,-1.152 l -15.888,-33.167999 c -0.24,-0.48 -0.624,-1.296 -1.68,-1.296 -0.96,0 -1.68,0.816 -1.68,1.68 0,0.383999 0.192,0.863999 0.336,1.151999 l 15.888,33.168 c 0.24,0.48 0.624,1.296 1.68,1.296 0.96,0 1.68,-0.816 1.68,-1.68"
         style=""
         id="path3035" />
      <path
         d="m 255.19273,137.21247 c 0,-1.68 -1.68,-1.68 -2.256,-1.68 l -15.264,0 c -0.576,0 -2.256,0 -2.256,1.68 0,1.68 1.68,1.68 2.256,1.68 l 15.264,0 c 0.576,0 2.256,0 2.256,-1.68"
         style=""
         id="path3037" />
      <path
         d="m 280.41148,137.21247 c 0,-1.68 -1.68,-1.68 -2.256,-1.68 l -15.264,0 c -0.576,0 -2.256,0 -2.256,1.68 0,1.68 1.68,1.68 2.256,1.68 l 15.264,0 c 0.576,0 2.256,0 2.256,-1.68"
         style=""
         id="path3039" />
      <path
         d="m 305.53423,99.244471 c 0,-0.864 -0.72,-1.68 -1.68,-1.68 -1.056,0 -1.392,0.72 -1.68,1.344 l -15.84,33.119999 c -0.336,0.768 -0.384,0.768 -0.384,1.152 0,0.864 0.72,1.68 1.68,1.68 1.056,0 1.392,-0.72 1.68,-1.344 l 15.84,-33.12 c 0.336,-0.767999 0.384,-0.768 0.384,-1.151999"
         style=""
         id="path3041" />
      <path
         d="m 330.75298,133.18047 c 0,-0.384 -0.192,-0.864 -0.336,-1.152 l -15.888,-33.167999 c -0.24,-0.48 -0.624,-1.296 -1.68,-1.296 -0.96,0 -1.68,0.816 -1.68,1.68 0,0.383999 0.192,0.863999 0.336,1.151999 l 15.888,33.168 c 0.24,0.48 0.624,1.296 1.68,1.296 0.96,0 1.68,-0.816 1.68,-1.68"
         style=""
         id="path3043" />
      <path
         d="m 78.565479,185.98047 c 0,-0.384 -0.192,-0.864 -0.336,-1.152 l -15.888,-33.168 c -0.24,-0.48 -0.624001,-1.296 -1.68,-1.296 -0.959999,0 -1.68,0.816 -1.68,1.68 0,0.384 0.192,0.864 0.336,1.152 l 15.888,33.168 c 0.24,0.48 0.624001,1.296 1.68,1.296 0.959999,0 1.68,-0.816 1.68,-1.68"
         style=""
         id="path3045" />
      <path
         d="m 103.88023,190.01247 c 0,-1.68 -1.68,-1.68 -2.256,-1.68 l -15.264001,0 c -0.575999,0 -2.256,0 -2.256,1.68 0,1.68 1.680001,1.68 2.256,1.68 l 15.264001,0 c 0.576,0 2.256,0 2.256,-1.68"
         style=""
         id="path3047" />
      <path
         d="m 129.09898,190.01247 c 0,-1.68 -1.68,-1.68 -2.256,-1.68 l -15.264,0 c -0.576,0 -2.256,0 -2.256,1.68 0,1.68 1.68,1.68 2.256,1.68 l 15.264,0 c 0.576,0 2.256,0 2.256,-1.68"
         style=""
         id="path3049" />
      <path
         d="m 155.18173,165.34047 c 0,-1.68 -1.776,-1.68 -2.448,-1.68 l -16.608,0 c -0.672,0 -2.448,0 -2.448,1.68 0,1.68 1.584,1.68 2.16,1.68 l 17.184,0 c 0.576,0 2.16,0 2.16,-1.68 m 0,7.296 c 0,-1.68 -1.584,-1.68 -2.16,-1.68 l -17.184,0 c -0.576,0 -2.16,0 -2.16,1.68 0,1.68 1.776,1.68 2.448,1.68 l 16.608,0 c 0.672,0 2.448,0 2.448,-1.68"
         style=""
         id="path3051" />
      <path
         d="m 178.04848,186.26847 c 0,-0.72 -0.336,-0.912 -1.2,-1.488 -5.95199,-4.03199 -8.16,-10.416 -8.16,-15.792 0,-4.79999 1.82401,-11.472 8.256,-15.84 0.768,-0.528 1.104,-0.72 1.104,-1.44 0,-0.384 -0.24,-1.344 -1.488,-1.344 -1.392,0 -11.184,6.33601 -11.184,18.624 0,5.712 2.208,10.032 3.888,12.432 2.544,3.504 6.144,6.192 7.296,6.192 1.248,0 1.488,-0.96 1.488,-1.344"
         style=""
         id="path3053" />
      <path
         d="m 255.14473,173.30847 c 0,-5.99999 -4.46401,-10.752 -9.84,-10.752 -5.376,0 -9.84,4.75201 -9.84,10.752 0,6.096 4.56,10.656 9.84,10.656 5.27999,0 9.84,-4.608 9.84,-10.656 m -3.312,-0.336 c 0,4.464 -2.976,8.064 -6.528,8.064 -3.552,0 -6.528,-3.6 -6.528,-8.064 0,-4.36799 3.12,-7.488 6.528,-7.488 3.456,0 6.528,3.12001 6.528,7.488"
         style=""
         id="path3055" />
      <path
         d="m 280.41148,190.01247 c 0,-1.68 -1.68,-1.68 -2.256,-1.68 l -15.264,0 c -0.576,0 -2.256,0 -2.256,1.68 0,1.68 1.68,1.68 2.256,1.68 l 15.264,0 c 0.576,0 2.256,0 2.256,-1.68"
         style=""
         id="path3057" />
      <path
         d="m 305.63023,169.03647 c 0,-13.87198 -1.00801,-15.216 -9.888,-15.216 -8.87999,0 -9.888,1.29602 -9.888,15.216 0,13.87199 1.00801,15.168 9.888,15.168 8.83199,0 9.888,-1.29601 9.888,-15.168 m -3.312,-0.432 c 0,2.976 0,6.384 -0.528,8.976 -0.528,2.688 -1.77601,3.696 -6.048,3.696 -4.224,0 -5.424,-1.008 -6,-3.408 -0.576,-2.448 -0.576,-6.624 -0.576,-9.264 0,-2.976 0,-6.24 0.528,-8.448 0.624,-2.832 2.112,-3.408 6.048,-3.408 3.6,0 5.28,0.432 6,3.072 0.576,2.256 0.576,5.856 0.576,8.784"
         style=""
         id="path3059" />
      <path
         d="m 350.49973,168.98847 c 0,-5.71199 -2.208,-10.032 -3.888,-12.432 -2.544,-3.50399 -6.144,-6.192 -7.296,-6.192 -1.2,0 -1.488,0.96 -1.488,1.344 0,0.72 0.528,1.056 0.768,1.2 7.87199,5.232 8.592,12.96 8.592,16.08 0,4.8 -1.77601,11.47201 -8.256,15.84 -0.72,0.48 -1.104,0.72 -1.104,1.44 0,0.384 0.288,1.344 1.488,1.344 1.392,0 11.184,-6.33601 11.184,-18.624"
         style=""
         id="path3061" />
      <path
         d="m 382.15048,165.34047 c 0,-1.68 -1.776,-1.68 -2.448,-1.68 l -16.608,0 c -0.672,0 -2.448,0 -2.448,1.68 0,1.68 1.584,1.68 2.16,1.68 l 17.184,0 c 0.576,0 2.16,0 2.16,-1.68 m 0,7.296 c 0,-1.68 -1.584,-1.68 -2.16,-1.68 l -17.184,0 c -0.576,0 -2.16,0 -2.16,1.68 0,1.68 1.776,1.68 2.448,1.68 l 16.608,0 c 0.672,0 2.448,0 2.448,-1.68"
         style=""
         id="path3063" />
      <path
         d="m 77.173479,239.06847 c 0,-0.72 -0.336001,-0.912 -1.2,-1.488 -5.951994,-4.03199 -8.16,-10.416 -8.16,-15.792 0,-4.79999 1.824007,-11.472 8.256,-15.84 0.767999,-0.528 1.104,-0.72 1.104,-1.44 0,-0.384 -0.240001,-1.344 -1.488,-1.344 -1.391998,0 -11.184,6.33602 -11.184,18.624 0,5.712 2.208002,10.03201 3.888,12.432 2.543998,3.504 6.144001,6.192 7.296,6.192 1.247999,0 1.488,-0.96 1.488,-1.344"
         style=""
         id="path3065" />
      <path
         d="m 103.88023,242.81247 c 0,-1.68 -1.68,-1.68 -2.256,-1.68 l -15.264001,0 c -0.575999,0 -2.256,0 -2.256,1.68 0,1.68 1.680001,1.68 2.256,1.68 l 15.264001,0 c 0.576,0 2.256,0 2.256,-1.68"
         style=""
         id="path3067" />
      <path
         d="m 129.09898,242.81247 c 0,-1.68 -1.68,-1.68 -2.256,-1.68 l -15.264,0 c -0.576,0 -2.256,0 -2.256,1.68 0,1.68 1.68,1.68 2.256,1.68 l 15.264,0 c 0.576,0 2.256,0 2.256,-1.68"
         style=""
         id="path3069" />
      <path
         d="m 154.31773,242.81247 c 0,-1.68 -1.68,-1.68 -2.256,-1.68 l -15.264,0 c -0.576,0 -2.256,0 -2.256,1.68 0,1.68 1.68,1.68 2.256,1.68 l 15.264,0 c 0.576,0 2.256,0 2.256,-1.68"
         style=""
         id="path3071" />
      <path
         d="m 179.53648,242.81247 c 0,-1.68 -1.68,-1.68 -2.256,-1.68 l -15.264,0 c -0.576,0 -2.256,0 -2.256,1.68 0,1.68 1.68,1.68 2.256,1.68 l 15.264,0 c 0.576,0 2.256,0 2.256,-1.68"
         style=""
         id="path3073" />
      <path
         d="m 204.75523,242.81247 c 0,-1.68 -1.68,-1.68 -2.256,-1.68 l -15.264,0 c -0.576,0 -2.256,0 -2.256,1.68 0,1.68 1.68,1.68 2.256,1.68 l 15.264,0 c 0.576,0 2.256,0 2.256,-1.68"
         style=""
         id="path3075" />
      <path
         d="m 229.97398,242.81247 c 0,-1.68 -1.68,-1.68 -2.256,-1.68 l -15.264,0 c -0.576,0 -2.256,0 -2.256,1.68 0,1.68 1.68,1.68 2.256,1.68 l 15.264,0 c 0.576,0 2.256,0 2.256,-1.68"
         style=""
         id="path3077" />
      <path
         d="m 255.19273,242.81247 c 0,-1.68 -1.68,-1.68 -2.256,-1.68 l -15.264,0 c -0.576,0 -2.256,0 -2.256,1.68 0,1.68 1.68,1.68 2.256,1.68 l 15.264,0 c 0.576,0 2.256,0 2.256,-1.68"
         style=""
         id="path3079" />
      <path
         d="m 280.41148,242.81247 c 0,-1.68 -1.68,-1.68 -2.256,-1.68 l -15.264,0 c -0.576,0 -2.256,0 -2.256,1.68 0,1.68 1.68,1.68 2.256,1.68 l 15.264,0 c 0.576,0 2.256,0 2.256,-1.68"
         style=""
         id="path3081" />
      <path
         d="m 305.63023,242.81247 c 0,-1.68 -1.68,-1.68 -2.256,-1.68 l -15.264,0 c -0.576,0 -2.256,0 -2.256,1.68 0,1.68 1.68,1.68 2.256,1.68 l 15.264,0 c 0.576,0 2.256,0 2.256,-1.68"
         style=""
         id="path3083" />
      <path
         d="m 330.84898,242.81247 c 0,-1.68 -1.68,-1.68 -2.256,-1.68 l -15.264,0 c -0.576,0 -2.256,0 -2.256,1.68 0,1.68 1.68,1.68 2.256,1.68 l 15.264,0 c 0.576,0 2.256,0 2.256,-1.68"
         style=""
         id="path3085" />
      <path
         d="m 350.49973,221.78847 c 0,-5.71199 -2.208,-10.032 -3.888,-12.432 -2.544,-3.50399 -6.144,-6.192 -7.296,-6.192 -1.2,0 -1.488,0.96 -1.488,1.344 0,0.72 0.528,1.056 0.768,1.2 7.87199,5.232 8.592,12.96001 8.592,16.08 0,4.8 -1.77601,11.47201 -8.256,15.84 -0.72,0.48 -1.104,0.72 -1.104,1.44 0,0.384 0.288,1.344 1.488,1.344 1.392,0 11.184,-6.33601 11.184,-18.624"
         style=""
         id="path3087" />
      <path
         d="m 95.672229,291.00447 0,-32.784 c 0,-0.576 -10e-7,-2.256 -1.68,-2.256 -1.679998,0 -1.68,1.68 -1.68,2.256 l 0,32.784 c 0,0.576 2e-6,2.256 1.68,2.256 1.679999,0 1.68,-1.68 1.68,-2.256"
         style=""
         id="path3089" />
      <path
         d="m 129.09898,295.61247 c 0,-1.67999 -1.68,-1.68 -2.256,-1.68 l -15.264,0 c -0.576,0 -2.256,10e-6 -2.256,1.68 0,1.68 1.68,1.68 2.256,1.68 l 15.264,0 c 0.576,0 2.256,0 2.256,-1.68"
         style=""
         id="path3091" />
      <path
         d="m 171.32848,291.00447 0,-32.784 c 0,-0.576 0,-2.256 -1.68,-2.256 -1.68,0 -1.68,1.68 -1.68,2.256 l 0,32.784 c 0,0.576 0,2.256 1.68,2.256 1.68,0 1.68,-1.68 1.68,-2.256"
         style=""
         id="path3093" />
      <path
         d="m 204.75523,295.61247 c 0,-1.67999 -1.68,-1.68 -2.256,-1.68 l -15.264,0 c -0.576,0 -2.256,10e-6 -2.256,1.68 0,1.68 1.68,1.68 2.256,1.68 l 15.264,0 c 0.576,0 2.256,0 2.256,-1.68"
         style=""
         id="path3095" />
      <path
         d="m 246.98473,291.00447 0,-32.784 c 0,-0.576 0,-2.256 -1.68,-2.256 -1.68,0 -1.68,1.68 -1.68,2.256 l 0,32.784 c 0,0.576 0,2.256 1.68,2.256 1.68,0 1.68,-1.68 1.68,-2.256"
         style=""
         id="path3097" />
      <path
         d="m 280.41148,295.61247 c 0,-1.67999 -1.68,-1.68 -2.256,-1.68 l -15.264,0 c -0.576,0 -2.256,10e-6 -2.256,1.68 0,1.68 1.68,1.68 2.256,1.68 l 15.264,0 c 0.576,0 2.256,0 2.256,-1.68"
         style=""
         id="path3099" />
      <path
         d="m 322.64098,291.00447 0,-32.784 c 0,-0.576 0,-2.256 -1.68,-2.256 -1.68,0 -1.68,1.68 -1.68,2.256 l 0,32.784 c 0,0.576 0,2.256 1.68,2.256 1.68,0 1.68,-1.68 1.68,-2.256"
         style=""
         id="path3101" />
      <path
         d="m 356.06773,295.61247 c 0,-1.67999 -1.68,-1.68 -2.256,-1.68 l -15.264,0 c -0.576,0 -2.256,10e-6 -2.256,1.68 0,1.68 1.68,1.68 2.256,1.68 l 15.264,0 c 0.576,0 2.256,0 2.256,-1.68"
         style=""
         id="path3103" />
      <path
         d="m 142.47635,386.81248 c 0,-1.584 -1.152,-1.584 -1.68,-1.584 -0.432,0 -1.536,0 -1.632,1.392 -0.336,4.70399 -4.224,5.856 -6.192,5.856 -4.36799,0 -8.496,-5.08801 -8.496,-12.288 0,-7.152 4.17601,-12.24 8.448,-12.24 2.88,0 5.52,2.208 6.192,6.096 0.144,0.816 0.24001,1.584 1.68,1.584 1.68,0 1.68,-1.008 1.68,-1.968 l 0,-6.672 c 0,-0.768 0,-1.968 -1.44,-1.968 -0.86399,0 -1.104,0.48 -1.344,0.816 -0.096,0.192 -0.096,0.288 -0.72,1.488 -1.58399,-1.344 -3.792,-2.304 -6.24,-2.304 -6.19199,0 -11.568,6.43201 -11.568,15.168 0,8.78399 5.37601,15.216 11.616,15.216 5.568,0 9.696,-4.27201 9.696,-8.592"
         style=""
         id="path3105" />
      <path
         d="m 168.3191,393.43648 c 0,-0.624 -0.24,-1.104 -0.816,-1.344 -0.288,-0.144 -1.344,-0.144 -2.064,-0.144 l -5.808,-25.104 c -0.432,-1.824 -1.104,-1.872 -2.592,-1.872 -1.39199,0 -2.16,0 -2.592,1.824 l -5.808,25.152 c -0.672,0 -1.776,0 -2.064,0.096 -0.528,0.288 -0.816,0.768 -0.816,1.392 0,1.43999 1.24801,1.44 2.064,1.44 l 4.896,0 c 0.864,0 2.016,-1e-5 2.016,-1.44 0,-1.488 -0.96,-1.488 -2.688,-1.488 l 1.104,-4.992 7.776,0 1.104,4.992 c -1.72799,0 -2.688,0 -2.688,1.488 0,1.43999 1.15201,1.44 2.016,1.44 l 4.896,0 c 0.816,0 2.064,-1e-5 2.064,-1.44 m -8.112,-9.408 -6.336,0 3.168,-15.072 3.168,15.072"
         style=""
         id="path3107" />
      <path
         d="m 193.58585,371.02048 0,-3.504 c 0,-1.488 -0.288,-1.968 -1.92,-1.968 l -18.768,0 c -1.58399,0 -1.968,0.384 -1.968,1.968 l 0,3.504 c 0,0.912 1e-5,1.968 1.632,1.968 1.68,0 1.68,-1.008 1.68,-1.968 l 0,-2.544 6.384,0 0,23.472 -2.496,0 c -0.72,0 -1.92,0 -1.92,1.44 0,1.48799 1.15201,1.488 1.92,1.488 l 8.304,0 c 0.72,0 1.92,-1e-5 1.92,-1.44 0,-1.488 -1.152,-1.488 -1.92,-1.488 l -2.496,0 0,-23.472 6.336,0 0,2.544 c 0,0.912 1e-5,1.968 1.632,1.968 1.68,0 1.68,-1.008 1.68,-1.968"
         style=""
         id="path3109" />
      <path
         d="m 217.3646,380.18848 c 0,-1.68 -1.68,-1.68 -2.256,-1.68 l -15.264,0 c -0.576,0 -2.256,0 -2.256,1.68 0,1.67999 1.68,1.68 2.256,1.68 l 15.264,0 c 0.576,0 2.256,-10e-6 2.256,-1.68"
         style=""
         id="path3111" />
      <path
         d="m 242.77535,386.90848 c 0,-3.072 -1.728,-5.088 -2.304,-5.712 -1.96799,-1.92 -3.264,-2.256 -7.008,-3.12 l -3.888,-0.864 c -2.01599,-0.576 -3.84,-2.25601 -3.84,-4.512 0,-2.448 2.35201,-4.752 5.76,-4.752 5.664,0 6.384,4.512 6.672,6 0.144,1.056 0.67201,1.344 1.632,1.344 1.68,0 1.68,-1.008 1.68,-1.968 l 0,-6.336 c 0,-0.768 0,-1.968 -1.44,-1.968 -1.15199,0 -1.392,0.816 -1.776,2.256 -1.96799,-1.68 -4.56,-2.256 -6.72,-2.256 -5.32799,0 -8.928,3.792 -8.928,7.872 0,3.21599 2.20801,6.384 6.192,7.536 l 5.52,1.296 c 1.344,0.288 5.328,1.248 5.328,5.424 0,2.49599 -2.064,5.328 -5.856,5.328 -1.34399,0 -3.696,-0.19201 -5.616,-1.488 -2.01599,-1.296 -2.208,-3.312 -2.256,-4.176 -0.048,-0.816 -0.096,-1.68 -1.632,-1.68 -1.67999,0 -1.68,1.008 -1.68,1.968 l 0,6.336 c 0,0.768 1e-5,1.968 1.44,1.968 1.056,0 1.344,-0.67201 1.776,-2.208 1.92,1.43999 4.84801,2.208 7.92,2.208 5.568,0 9.024,-4.22401 9.024,-8.496"
         style=""
         id="path3113" />
      <path
         d="m 267.8021,380.23648 c 0,-13.87199 -1.008,-15.216 -9.888,-15.216 -8.87999,0 -9.888,1.29601 -9.888,15.216 0,13.87198 1.00801,15.168 9.888,15.168 8.832,0 9.888,-1.29602 9.888,-15.168 m -3.312,-0.432 c 0,2.97599 0,6.384 -0.528,8.976 -0.528,2.68799 -1.776,3.696 -6.048,3.696 -4.22399,0 -5.424,-1.00801 -6,-3.408 -0.576,-2.448 -0.576,-6.62401 -0.576,-9.264 0,-2.976 0,-6.24001 0.528,-8.448 0.624,-2.832 2.11201,-3.408 6.048,-3.408 3.6,0 5.28,0.432 6,3.072 0.576,2.25599 0.576,5.856 0.576,8.784"
         style=""
         id="path3115" />
      <path
         d="m 293.02085,380.23648 c 0,-13.87199 -1.008,-15.216 -9.888,-15.216 -8.87999,0 -9.888,1.29601 -9.888,15.216 0,13.87198 1.00801,15.168 9.888,15.168 8.832,0 9.888,-1.29602 9.888,-15.168 m -3.312,-0.432 c 0,2.97599 0,6.384 -0.528,8.976 -0.528,2.68799 -1.776,3.696 -6.048,3.696 -4.22399,0 -5.424,-1.00801 -6,-3.408 -0.576,-2.448 -0.576,-6.62401 -0.576,-9.264 0,-2.976 0,-6.24001 0.528,-8.448 0.624,-2.832 2.11201,-3.408 6.048,-3.408 3.6,0 5.28,0.432 6,3.072 0.576,2.25599 0.576,5.856 0.576,8.784"
         style=""
         id="path3117" />
      <path
         d="m 318.8156,374.33248 c 0,-4.464 -3.552,-8.784 -9.072,-8.784 l -10.752,0 c -0.72,0 -1.968,0 -1.968,1.44 0,1.48799 1.248,1.488 1.968,1.488 l 1.44,0 0,23.472 -1.44,0 c -0.76799,0 -1.968,0 -1.968,1.488 0,1.43999 1.248,1.44 1.968,1.44 l 6.192,0 c 0.72,0 1.968,-1e-5 1.968,-1.44 0,-1.488 -1.248,-1.488 -1.968,-1.488 l -1.44,0 0,-8.832 6,0 c 5.568,0 9.072,-4.32001 9.072,-8.784 m -3.312,0 c 0,2.54399 -2.064,5.856 -6.672,5.856 l -5.088,0 0,-11.712 5.088,0 c 4.608,0 6.672,3.312 6.672,5.856"
         style=""
         id="path3119" />
    </g>
  </g>
</svg>
