<?xml version="1.0" encoding="UTF-8" standalone="no"?>
<!-- Created with Inkscape (http://www.inkscape.org/) -->

<svg
   xmlns:dc="http://purl.org/dc/elements/1.1/"
   xmlns:cc="http://creativecommons.org/ns#"
   xmlns:rdf="http://www.w3.org/1999/02/22-rdf-syntax-ns#"
   xmlns:svg="http://www.w3.org/2000/svg"
   xmlns="http://www.w3.org/2000/svg"
   xmlns:sodipodi="http://sodipodi.sourceforge.net/DTD/sodipodi-0.dtd"
   xmlns:inkscape="http://www.inkscape.org/namespaces/inkscape"
   width="323.16901"
   height="252.528"
   id="svg2"
   version="1.1"
   inkscape:version="0.48.5 r10040"
   sodipodi:docname="logo_catonly.svg">
  <title
     id="title3282">CAT-SOOP Logo (cat only)</title>
  <defs
     id="defs4" />
  <sodipodi:namedview
     id="base"
     pagecolor="#ffffff"
     bordercolor="#666666"
     borderopacity="1.0"
     inkscape:pageopacity="0.0"
     inkscape:pageshadow="2"
     inkscape:zoom="0.35"
     inkscape:cx="-206.83862"
     inkscape:cy="-235.06972"
     inkscape:document-units="px"
     inkscape:current-layer="layer1"
     showgrid="false"
     fit-margin-top="0"
     fit-margin-left="0"
     fit-margin-right="0"
     fit-margin-bottom="0"
     inkscape:window-width="1276"
     inkscape:window-height="743"
     inkscape:window-x="0"
     inkscape:window-y="36"
     inkscape:window-maximized="0" />
  <metadata
     id="metadata7">
    <rdf:RDF>
      <cc:Work
         rdf:about="">
        <dc:format>image/svg+xml</dc:format>
        <dc:type
           rdf:resource="http://purl.org/dc/dcmitype/StillImage" />
        <dc:title>CAT-SOOP Logo (cat only)</dc:title>
        <cc:license
           rdf:resource="http://creativecommons.org/licenses/by-sa/3.0/" />
        <dc:date>2011</dc:date>
        <dc:creator>
          <cc:Agent>
            <dc:title>Adam Hartz</dc:title>
          </cc:Agent>
        </dc:creator>
      </cc:Work>
      <cc:License
         rdf:about="http://creativecommons.org/licenses/by-sa/3.0/">
        <cc:permits
           rdf:resource="http://creativecommons.org/ns#Reproduction" />
        <cc:permits
           rdf:resource="http://creativecommons.org/ns#Distribution" />
        <cc:requires
           rdf:resource="http://creativecommons.org/ns#Notice" />
        <cc:requires
           rdf:resource="http://creativecommons.org/ns#Attribution" />
        <cc:permits
           rdf:resource="http://creativecommons.org/ns#DerivativeWorks" />
        <cc:requires
           rdf:resource="http://creativecommons.org/ns#ShareAlike" />
      </cc:License>
    </rdf:RDF>
  </metadata>
  <g
     inkscape:label="Layer 1"
     inkscape:groupmode="layer"
     id="layer1"
     transform="translate(-58.981479,-44.764469)">
    <path
       inkscape:connector-curvature="0"
       id="path3029"
       style="font-size:48px;font-style:normal;font-variant:normal;font-weight:bold;font-stretch:normal;text-align:center;line-height:110.00000238%;letter-spacing:0px;word-spacing:0px;text-anchor:middle;fill:#000000;fill-opacity:1;stroke:none;font-family:Latin Modern Mono;-inkscape-font-specification:Latin Modern Mono Bold"
       d="m 78.565479,80.380469 c 0,-0.383999 -0.192,-0.864 -0.336,-1.152 l -15.888,-33.168 c -0.24,-0.479999 -0.624001,-1.296 -1.68,-1.296 -0.959999,0 -1.68,0.816001 -1.68,1.68 0,0.384 0.192,0.864001 0.336,1.152 l 15.888,33.168 c 0.24,0.48 0.624001,1.296 1.68,1.296 0.959999,0 1.68,-0.816 1.68,-1.68" />
    <path
       inkscape:connector-curvature="0"
       id="path3031"
       style="font-size:48px;font-style:normal;font-variant:normal;font-weight:bold;font-stretch:normal;text-align:center;line-height:110.00000238%;letter-spacing:0px;word-spacing:0px;text-anchor:middle;fill:#000000;fill-opacity:1;stroke:none;font-family:Latin Modern Mono;-inkscape-font-specification:Latin Modern Mono Bold"
       d="m 78.565479,99.244471 c 0,-0.864 -0.720001,-1.68 -1.68,-1.68 -1.055999,0 -1.392,0.72 -1.68,1.344 l -15.84,33.119999 c -0.335999,0.768 -0.384,0.768 -0.384,1.152 0,0.864 0.720001,1.68 1.68,1.68 1.055999,0 1.392001,-0.72 1.68,-1.344 l 15.84,-33.12 c 0.336,-0.767999 0.384,-0.768 0.384,-1.151999" />
    <path
       inkscape:connector-curvature="0"
       id="path3033"
       style="font-size:48px;font-style:normal;font-variant:normal;font-weight:bold;font-stretch:normal;text-align:center;line-height:110.00000238%;letter-spacing:0px;word-spacing:0px;text-anchor:middle;fill:#000000;fill-opacity:1;stroke:none;font-family:Latin Modern Mono;-inkscape-font-specification:Latin Modern Mono Bold"
       d="m 204.65923,99.244471 c 0,-0.864 -0.72,-1.68 -1.68,-1.68 -1.056,0 -1.392,0.72 -1.68,1.344 l -15.84,33.119999 c -0.336,0.768 -0.384,0.768 -0.384,1.152 0,0.864 0.72,1.68 1.68,1.68 1.056,0 1.392,-0.72 1.68,-1.344 l 15.84,-33.12 c 0.336,-0.767999 0.384,-0.768 0.384,-1.151999" />
    <path
       inkscape:connector-curvature="0"
       id="path3035"
       style="font-size:48px;font-style:normal;font-variant:normal;font-weight:bold;font-stretch:normal;text-align:center;line-height:110.00000238%;letter-spacing:0px;word-spacing:0px;text-anchor:middle;fill:#000000;fill-opacity:1;stroke:none;font-family:Latin Modern Mono;-inkscape-font-specification:Latin Modern Mono Bold"
       d="m 229.87798,133.18047 c 0,-0.384 -0.192,-0.864 -0.336,-1.152 l -15.888,-33.167999 c -0.24,-0.48 -0.624,-1.296 -1.68,-1.296 -0.96,0 -1.68,0.816 -1.68,1.68 0,0.383999 0.192,0.863999 0.336,1.151999 l 15.888,33.168 c 0.24,0.48 0.624,1.296 1.68,1.296 0.96,0 1.68,-0.816 1.68,-1.68" />
    <path
       inkscape:connector-curvature="0"
       id="path3037"
       style="font-size:48px;font-style:normal;font-variant:normal;font-weight:bold;font-stretch:normal;text-align:center;line-height:110.00000238%;letter-spacing:0px;word-spacing:0px;text-anchor:middle;fill:#000000;fill-opacity:1;stroke:none;font-family:Latin Modern Mono;-inkscape-font-specification:Latin Modern Mono Bold"
       d="m 255.19273,137.21247 c 0,-1.68 -1.68,-1.68 -2.256,-1.68 l -15.264,0 c -0.576,0 -2.256,0 -2.256,1.68 0,1.68 1.68,1.68 2.256,1.68 l 15.264,0 c 0.576,0 2.256,0 2.256,-1.68" />
    <path
       inkscape:connector-curvature="0"
       id="path3039"
       style="font-size:48px;font-style:normal;font-variant:normal;font-weight:bold;font-stretch:normal;text-align:center;line-height:110.00000238%;letter-spacing:0px;word-spacing:0px;text-anchor:middle;fill:#000000;fill-opacity:1;stroke:none;font-family:Latin Modern Mono;-inkscape-font-specification:Latin Modern Mono Bold"
       d="m 280.41148,137.21247 c 0,-1.68 -1.68,-1.68 -2.256,-1.68 l -15.264,0 c -0.576,0 -2.256,0 -2.256,1.68 0,1.68 1.68,1.68 2.256,1.68 l 15.264,0 c 0.576,0 2.256,0 2.256,-1.68" />
    <path
       inkscape:connector-curvature="0"
       id="path3041"
       style="font-size:48px;font-style:normal;font-variant:normal;font-weight:bold;font-stretch:normal;text-align:center;line-height:110.00000238%;letter-spacing:0px;word-spacing:0px;text-anchor:middle;fill:#000000;fill-opacity:1;stroke:none;font-family:Latin Modern Mono;-inkscape-font-specification:Latin Modern Mono Bold"
       d="m 305.53423,99.244471 c 0,-0.864 -0.72,-1.68 -1.68,-1.68 -1.056,0 -1.392,0.72 -1.68,1.344 l -15.84,33.119999 c -0.336,0.768 -0.384,0.768 -0.384,1.152 0,0.864 0.72,1.68 1.68,1.68 1.056,0 1.392,-0.72 1.68,-1.344 l 15.84,-33.12 c 0.336,-0.767999 0.384,-0.768 0.384,-1.151999" />
    <path
       inkscape:connector-curvature="0"
       id="path3043"
       style="font-size:48px;font-style:normal;font-variant:normal;font-weight:bold;font-stretch:normal;text-align:center;line-height:110.00000238%;letter-spacing:0px;word-spacing:0px;text-anchor:middle;fill:#000000;fill-opacity:1;stroke:none;font-family:Latin Modern Mono;-inkscape-font-specification:Latin Modern Mono Bold"
       d="m 330.75298,133.18047 c 0,-0.384 -0.192,-0.864 -0.336,-1.152 l -15.888,-33.167999 c -0.24,-0.48 -0.624,-1.296 -1.68,-1.296 -0.96,0 -1.68,0.816 -1.68,1.68 0,0.383999 0.192,0.863999 0.336,1.151999 l 15.888,33.168 c 0.24,0.48 0.624,1.296 1.68,1.296 0.96,0 1.68,-0.816 1.68,-1.68" />
    <path
       inkscape:connector-curvature="0"
       id="path3045"
       style="font-size:48px;font-style:normal;font-variant:normal;font-weight:bold;font-stretch:normal;text-align:center;line-height:110.00000238%;letter-spacing:0px;word-spacing:0px;text-anchor:middle;fill:#000000;fill-opacity:1;stroke:none;font-family:Latin Modern Mono;-inkscape-font-specification:Latin Modern Mono Bold"
       d="m 78.565479,185.98047 c 0,-0.384 -0.192,-0.864 -0.336,-1.152 l -15.888,-33.168 c -0.24,-0.48 -0.624001,-1.296 -1.68,-1.296 -0.959999,0 -1.68,0.816 -1.68,1.68 0,0.384 0.192,0.864 0.336,1.152 l 15.888,33.168 c 0.24,0.48 0.624001,1.296 1.68,1.296 0.959999,0 1.68,-0.816 1.68,-1.68" />
    <path
       inkscape:connector-curvature="0"
       id="path3047"
       style="font-size:48px;font-style:normal;font-variant:normal;font-weight:bold;font-stretch:normal;text-align:center;line-height:110.00000238%;letter-spacing:0px;word-spacing:0px;text-anchor:middle;fill:#000000;fill-opacity:1;stroke:none;font-family:Latin Modern Mono;-inkscape-font-specification:Latin Modern Mono Bold"
       d="m 103.88023,190.01247 c 0,-1.68 -1.68,-1.68 -2.256,-1.68 l -15.264001,0 c -0.575999,0 -2.256,0 -2.256,1.68 0,1.68 1.680001,1.68 2.256,1.68 l 15.264001,0 c 0.576,0 2.256,0 2.256,-1.68" />
    <path
       inkscape:connector-curvature="0"
       id="path3049"
       style="font-size:48px;font-style:normal;font-variant:normal;font-weight:bold;font-stretch:normal;text-align:center;line-height:110.00000238%;letter-spacing:0px;word-spacing:0px;text-anchor:middle;fill:#000000;fill-opacity:1;stroke:none;font-family:Latin Modern Mono;-inkscape-font-specification:Latin Modern Mono Bold"
       d="m 129.09898,190.01247 c 0,-1.68 -1.68,-1.68 -2.256,-1.68 l -15.264,0 c -0.576,0 -2.256,0 -2.256,1.68 0,1.68 1.68,1.68 2.256,1.68 l 15.264,0 c 0.576,0 2.256,0 2.256,-1.68" />
    <path
       inkscape:connector-curvature="0"
       id="path3051"
       style="font-size:48px;font-style:normal;font-variant:normal;font-weight:bold;font-stretch:normal;text-align:center;line-height:110.00000238%;letter-spacing:0px;word-spacing:0px;text-anchor:middle;fill:#000000;fill-opacity:1;stroke:none;font-family:Latin Modern Mono;-inkscape-font-specification:Latin Modern Mono Bold"
       d="m 155.18173,165.34047 c 0,-1.68 -1.776,-1.68 -2.448,-1.68 l -16.608,0 c -0.672,0 -2.448,0 -2.448,1.68 0,1.68 1.584,1.68 2.16,1.68 l 17.184,0 c 0.576,0 2.16,0 2.16,-1.68 m 0,7.296 c 0,-1.68 -1.584,-1.68 -2.16,-1.68 l -17.184,0 c -0.576,0 -2.16,0 -2.16,1.68 0,1.68 1.776,1.68 2.448,1.68 l 16.608,0 c 0.672,0 2.448,0 2.448,-1.68" />
    <path
       inkscape:connector-curvature="0"
       id="path3053"
       style="font-size:48px;font-style:normal;font-variant:normal;font-weight:bold;font-stretch:normal;text-align:center;line-height:110.00000238%;letter-spacing:0px;word-spacing:0px;text-anchor:middle;fill:#000000;fill-opacity:1;stroke:none;font-family:Latin Modern Mono;-inkscape-font-specification:Latin Modern Mono Bold"
       d="m 178.04848,186.26847 c 0,-0.72 -0.336,-0.912 -1.2,-1.488 -5.95199,-4.03199 -8.16,-10.416 -8.16,-15.792 0,-4.79999 1.82401,-11.472 8.256,-15.84 0.768,-0.528 1.104,-0.72 1.104,-1.44 0,-0.384 -0.24,-1.344 -1.488,-1.344 -1.392,0 -11.184,6.33601 -11.184,18.624 0,5.712 2.208,10.032 3.888,12.432 2.544,3.504 6.144,6.192 7.296,6.192 1.248,0 1.488,-0.96 1.488,-1.344" />
    <path
       inkscape:connector-curvature="0"
       id="path3055"
       style="font-size:48px;font-style:normal;font-variant:normal;font-weight:bold;font-stretch:normal;text-align:center;line-height:110.00000238%;letter-spacing:0px;word-spacing:0px;text-anchor:middle;fill:#000000;fill-opacity:1;stroke:none;font-family:Latin Modern Mono;-inkscape-font-specification:Latin Modern Mono Bold"
       d="m 255.14473,173.30847 c 0,-5.99999 -4.46401,-10.752 -9.84,-10.752 -5.376,0 -9.84,4.75201 -9.84,10.752 0,6.096 4.56,10.656 9.84,10.656 5.27999,0 9.84,-4.608 9.84,-10.656 m -3.312,-0.336 c 0,4.464 -2.976,8.064 -6.528,8.064 -3.552,0 -6.528,-3.6 -6.528,-8.064 0,-4.36799 3.12,-7.488 6.528,-7.488 3.456,0 6.528,3.12001 6.528,7.488" />
    <path
       inkscape:connector-curvature="0"
       id="path3057"
       style="font-size:48px;font-style:normal;font-variant:normal;font-weight:bold;font-stretch:normal;text-align:center;line-height:110.00000238%;letter-spacing:0px;word-spacing:0px;text-anchor:middle;fill:#000000;fill-opacity:1;stroke:none;font-family:Latin Modern Mono;-inkscape-font-specification:Latin Modern Mono Bold"
       d="m 280.41148,190.01247 c 0,-1.68 -1.68,-1.68 -2.256,-1.68 l -15.264,0 c -0.576,0 -2.256,0 -2.256,1.68 0,1.68 1.68,1.68 2.256,1.68 l 15.264,0 c 0.576,0 2.256,0 2.256,-1.68" />
    <path
       inkscape:connector-curvature="0"
       id="path3059"
       style="font-size:48px;font-style:normal;font-variant:normal;font-weight:bold;font-stretch:normal;text-align:center;line-height:110.00000238%;letter-spacing:0px;word-spacing:0px;text-anchor:middle;fill:#000000;fill-opacity:1;stroke:none;font-family:Latin Modern Mono;-inkscape-font-specification:Latin Modern Mono Bold"
       d="m 305.63023,169.03647 c 0,-13.87198 -1.00801,-15.216 -9.888,-15.216 -8.87999,0 -9.888,1.29602 -9.888,15.216 0,13.87199 1.00801,15.168 9.888,15.168 8.83199,0 9.888,-1.29601 9.888,-15.168 m -3.312,-0.432 c 0,2.976 0,6.384 -0.528,8.976 -0.528,2.688 -1.77601,3.696 -6.048,3.696 -4.224,0 -5.424,-1.008 -6,-3.408 -0.576,-2.448 -0.576,-6.624 -0.576,-9.264 0,-2.976 0,-6.24 0.528,-8.448 0.624,-2.832 2.112,-3.408 6.048,-3.408 3.6,0 5.28,0.432 6,3.072 0.576,2.256 0.576,5.856 0.576,8.784" />
    <path
       inkscape:connector-curvature="0"
       id="path3061"
       style="font-size:48px;font-style:normal;font-variant:normal;font-weight:bold;font-stretch:normal;text-align:center;line-height:110.00000238%;letter-spacing:0px;word-spacing:0px;text-anchor:middle;fill:#000000;fill-opacity:1;stroke:none;font-family:Latin Modern Mono;-inkscape-font-specification:Latin Modern Mono Bold"
       d="m 350.49973,168.98847 c 0,-5.71199 -2.208,-10.032 -3.888,-12.432 -2.544,-3.50399 -6.144,-6.192 -7.296,-6.192 -1.2,0 -1.488,0.96 -1.488,1.344 0,0.72 0.528,1.056 0.768,1.2 7.87199,5.232 8.592,12.96 8.592,16.08 0,4.8 -1.77601,11.47201 -8.256,15.84 -0.72,0.48 -1.104,0.72 -1.104,1.44 0,0.384 0.288,1.344 1.488,1.344 1.392,0 11.184,-6.33601 11.184,-18.624" />
    <path
       inkscape:connector-curvature="0"
       id="path3063"
       style="font-size:48px;font-style:normal;font-variant:normal;font-weight:bold;font-stretch:normal;text-align:center;line-height:110.00000238%;letter-spacing:0px;word-spacing:0px;text-anchor:middle;fill:#000000;fill-opacity:1;stroke:none;font-family:Latin Modern Mono;-inkscape-font-specification:Latin Modern Mono Bold"
       d="m 382.15048,165.34047 c 0,-1.68 -1.776,-1.68 -2.448,-1.68 l -16.608,0 c -0.672,0 -2.448,0 -2.448,1.68 0,1.68 1.584,1.68 2.16,1.68 l 17.184,0 c 0.576,0 2.16,0 2.16,-1.68 m 0,7.296 c 0,-1.68 -1.584,-1.68 -2.16,-1.68 l -17.184,0 c -0.576,0 -2.16,0 -2.16,1.68 0,1.68 1.776,1.68 2.448,1.68 l 16.608,0 c 0.672,0 2.448,0 2.448,-1.68" />
    <path
       inkscape:connector-curvature="0"
       id="path3065"
       style="font-size:48px;font-style:normal;font-variant:normal;font-weight:bold;font-stretch:normal;text-align:center;line-height:110.00000238%;letter-spacing:0px;word-spacing:0px;text-anchor:middle;fill:#000000;fill-opacity:1;stroke:none;font-family:Latin Modern Mono;-inkscape-font-specification:Latin Modern Mono Bold"
       d="m 77.173479,239.06847 c 0,-0.72 -0.336001,-0.912 -1.2,-1.488 -5.951994,-4.03199 -8.16,-10.416 -8.16,-15.792 0,-4.79999 1.824007,-11.472 8.256,-15.84 0.767999,-0.528 1.104,-0.72 1.104,-1.44 0,-0.384 -0.240001,-1.344 -1.488,-1.344 -1.391998,0 -11.184,6.33602 -11.184,18.624 0,5.712 2.208002,10.03201 3.888,12.432 2.543998,3.504 6.144001,6.192 7.296,6.192 1.247999,0 1.488,-0.96 1.488,-1.344" />
    <path
       inkscape:connector-curvature="0"
       id="path3067"
       style="font-size:48px;font-style:normal;font-variant:normal;font-weight:bold;font-stretch:normal;text-align:center;line-height:110.00000238%;letter-spacing:0px;word-spacing:0px;text-anchor:middle;fill:#000000;fill-opacity:1;stroke:none;font-family:Latin Modern Mono;-inkscape-font-specification:Latin Modern Mono Bold"
       d="m 103.88023,242.81247 c 0,-1.68 -1.68,-1.68 -2.256,-1.68 l -15.264001,0 c -0.575999,0 -2.256,0 -2.256,1.68 0,1.68 1.680001,1.68 2.256,1.68 l 15.264001,0 c 0.576,0 2.256,0 2.256,-1.68" />
    <path
       inkscape:connector-curvature="0"
       id="path3069"
       style="font-size:48px;font-style:normal;font-variant:normal;font-weight:bold;font-stretch:normal;text-align:center;line-height:110.00000238%;letter-spacing:0px;word-spacing:0px;text-anchor:middle;fill:#000000;fill-opacity:1;stroke:none;font-family:Latin Modern Mono;-inkscape-font-specification:Latin Modern Mono Bold"
       d="m 129.09898,242.81247 c 0,-1.68 -1.68,-1.68 -2.256,-1.68 l -15.264,0 c -0.576,0 -2.256,0 -2.256,1.68 0,1.68 1.68,1.68 2.256,1.68 l 15.264,0 c 0.576,0 2.256,0 2.256,-1.68" />
    <path
       inkscape:connector-curvature="0"
       id="path3071"
       style="font-size:48px;font-style:normal;font-variant:normal;font-weight:bold;font-stretch:normal;text-align:center;line-height:110.00000238%;letter-spacing:0px;word-spacing:0px;text-anchor:middle;fill:#000000;fill-opacity:1;stroke:none;font-family:Latin Modern Mono;-inkscape-font-specification:Latin Modern Mono Bold"
       d="m 154.31773,242.81247 c 0,-1.68 -1.68,-1.68 -2.256,-1.68 l -15.264,0 c -0.576,0 -2.256,0 -2.256,1.68 0,1.68 1.68,1.68 2.256,1.68 l 15.264,0 c 0.576,0 2.256,0 2.256,-1.68" />
    <path
       inkscape:connector-curvature="0"
       id="path3073"
       style="font-size:48px;font-style:normal;font-variant:normal;font-weight:bold;font-stretch:normal;text-align:center;line-height:110.00000238%;letter-spacing:0px;word-spacing:0px;text-anchor:middle;fill:#000000;fill-opacity:1;stroke:none;font-family:Latin Modern Mono;-inkscape-font-specification:Latin Modern Mono Bold"
       d="m 179.53648,242.81247 c 0,-1.68 -1.68,-1.68 -2.256,-1.68 l -15.264,0 c -0.576,0 -2.256,0 -2.256,1.68 0,1.68 1.68,1.68 2.256,1.68 l 15.264,0 c 0.576,0 2.256,0 2.256,-1.68" />
    <path
       inkscape:connector-curvature="0"
       id="path3075"
       style="font-size:48px;font-style:normal;font-variant:normal;font-weight:bold;font-stretch:normal;text-align:center;line-height:110.00000238%;letter-spacing:0px;word-spacing:0px;text-anchor:middle;fill:#000000;fill-opacity:1;stroke:none;font-family:Latin Modern Mono;-inkscape-font-specification:Latin Modern Mono Bold"
       d="m 204.75523,242.81247 c 0,-1.68 -1.68,-1.68 -2.256,-1.68 l -15.264,0 c -0.576,0 -2.256,0 -2.256,1.68 0,1.68 1.68,1.68 2.256,1.68 l 15.264,0 c 0.576,0 2.256,0 2.256,-1.68" />
    <path
       inkscape:connector-curvature="0"
       id="path3077"
       style="font-size:48px;font-style:normal;font-variant:normal;font-weight:bold;font-stretch:normal;text-align:center;line-height:110.00000238%;letter-spacing:0px;word-spacing:0px;text-anchor:middle;fill:#000000;fill-opacity:1;stroke:none;font-family:Latin Modern Mono;-inkscape-font-specification:Latin Modern Mono Bold"
       d="m 229.97398,242.81247 c 0,-1.68 -1.68,-1.68 -2.256,-1.68 l -15.264,0 c -0.576,0 -2.256,0 -2.256,1.68 0,1.68 1.68,1.68 2.256,1.68 l 15.264,0 c 0.576,0 2.256,0 2.256,-1.68" />
    <path
       inkscape:connector-curvature="0"
       id="path3079"
       style="font-size:48px;font-style:normal;font-variant:normal;font-weight:bold;font-stretch:normal;text-align:center;line-height:110.00000238%;letter-spacing:0px;word-spacing:0px;text-anchor:middle;fill:#000000;fill-opacity:1;stroke:none;font-family:Latin Modern Mono;-inkscape-font-specification:Latin Modern Mono Bold"
       d="m 255.19273,242.81247 c 0,-1.68 -1.68,-1.68 -2.256,-1.68 l -15.264,0 c -0.576,0 -2.256,0 -2.256,1.68 0,1.68 1.68,1.68 2.256,1.68 l 15.264,0 c 0.576,0 2.256,0 2.256,-1.68" />
    <path
       inkscape:connector-curvature="0"
       id="path3081"
       style="font-size:48px;font-style:normal;font-variant:normal;font-weight:bold;font-stretch:normal;text-align:center;line-height:110.00000238%;letter-spacing:0px;word-spacing:0px;text-anchor:middle;fill:#000000;fill-opacity:1;stroke:none;font-family:Latin Modern Mono;-inkscape-font-specification:Latin Modern Mono Bold"
       d="m 280.41148,242.81247 c 0,-1.68 -1.68,-1.68 -2.256,-1.68 l -15.264,0 c -0.576,0 -2.256,0 -2.256,1.68 0,1.68 1.68,1.68 2.256,1.68 l 15.264,0 c 0.576,0 2.256,0 2.256,-1.68" />
    <path
       inkscape:connector-curvature="0"
       id="path3083"
       style="font-size:48px;font-style:normal;font-variant:normal;font-weight:bold;font-stretch:normal;text-align:center;line-height:110.00000238%;letter-spacing:0px;word-spacing:0px;text-anchor:middle;fill:#000000;fill-opacity:1;stroke:none;font-family:Latin Modern Mono;-inkscape-font-specification:Latin Modern Mono Bold"
       d="m 305.63023,242.81247 c 0,-1.68 -1.68,-1.68 -2.256,-1.68 l -15.264,0 c -0.576,0 -2.256,0 -2.256,1.68 0,1.68 1.68,1.68 2.256,1.68 l 15.264,0 c 0.576,0 2.256,0 2.256,-1.68" />
    <path
       inkscape:connector-curvature="0"
       id="path3085"
       style="font-size:48px;font-style:normal;font-variant:normal;font-weight:bold;font-stretch:normal;text-align:center;line-height:110.00000238%;letter-spacing:0px;word-spacing:0px;text-anchor:middle;fill:#000000;fill-opacity:1;stroke:none;font-family:Latin Modern Mono;-inkscape-font-specification:Latin Modern Mono Bold"
       d="m 330.84898,242.81247 c 0,-1.68 -1.68,-1.68 -2.256,-1.68 l -15.264,0 c -0.576,0 -2.256,0 -2.256,1.68 0,1.68 1.68,1.68 2.256,1.68 l 15.264,0 c 0.576,0 2.256,0 2.256,-1.68" />
    <path
       inkscape:connector-curvature="0"
       id="path3087"
       style="font-size:48px;font-style:normal;font-variant:normal;font-weight:bold;font-stretch:normal;text-align:center;line-height:110.00000238%;letter-spacing:0px;word-spacing:0px;text-anchor:middle;fill:#000000;fill-opacity:1;stroke:none;font-family:Latin Modern Mono;-inkscape-font-specification:Latin Modern Mono Bold"
       d="m 350.49973,221.78847 c 0,-5.71199 -2.208,-10.032 -3.888,-12.432 -2.544,-3.50399 -6.144,-6.192 -7.296,-6.192 -1.2,0 -1.488,0.96 -1.488,1.344 0,0.72 0.528,1.056 0.768,1.2 7.87199,5.232 8.592,12.96001 8.592,16.08 0,4.8 -1.77601,11.47201 -8.256,15.84 -0.72,0.48 -1.104,0.72 -1.104,1.44 0,0.384 0.288,1.344 1.488,1.344 1.392,0 11.184,-6.33601 11.184,-18.624" />
    <path
       inkscape:connector-curvature="0"
       id="path3089"
       style="font-size:48px;font-style:normal;font-variant:normal;font-weight:bold;font-stretch:normal;text-align:center;line-height:110.00000238%;letter-spacing:0px;word-spacing:0px;text-anchor:middle;fill:#000000;fill-opacity:1;stroke:none;font-family:Latin Modern Mono;-inkscape-font-specification:Latin Modern Mono Bold"
       d="m 95.672229,291.00447 0,-32.784 c 0,-0.576 -10e-7,-2.256 -1.68,-2.256 -1.679998,0 -1.68,1.68 -1.68,2.256 l 0,32.784 c 0,0.576 2e-6,2.256 1.68,2.256 1.679999,0 1.68,-1.68 1.68,-2.256" />
    <path
       inkscape:connector-curvature="0"
       id="path3091"
       style="font-size:48px;font-style:normal;font-variant:normal;font-weight:bold;font-stretch:normal;text-align:center;line-height:110.00000238%;letter-spacing:0px;word-spacing:0px;text-anchor:middle;fill:#000000;fill-opacity:1;stroke:none;font-family:Latin Modern Mono;-inkscape-font-specification:Latin Modern Mono Bold"
       d="m 129.09898,295.61247 c 0,-1.67999 -1.68,-1.68 -2.256,-1.68 l -15.264,0 c -0.576,0 -2.256,10e-6 -2.256,1.68 0,1.68 1.68,1.68 2.256,1.68 l 15.264,0 c 0.576,0 2.256,0 2.256,-1.68" />
    <path
       inkscape:connector-curvature="0"
       id="path3093"
       style="font-size:48px;font-style:normal;font-variant:normal;font-weight:bold;font-stretch:normal;text-align:center;line-height:110.00000238%;letter-spacing:0px;word-spacing:0px;text-anchor:middle;fill:#000000;fill-opacity:1;stroke:none;font-family:Latin Modern Mono;-inkscape-font-specification:Latin Modern Mono Bold"
       d="m 171.32848,291.00447 0,-32.784 c 0,-0.576 0,-2.256 -1.68,-2.256 -1.68,0 -1.68,1.68 -1.68,2.256 l 0,32.784 c 0,0.576 0,2.256 1.68,2.256 1.68,0 1.68,-1.68 1.68,-2.256" />
    <path
       inkscape:connector-curvature="0"
       id="path3095"
       style="font-size:48px;font-style:normal;font-variant:normal;font-weight:bold;font-stretch:normal;text-align:center;line-height:110.00000238%;letter-spacing:0px;word-spacing:0px;text-anchor:middle;fill:#000000;fill-opacity:1;stroke:none;font-family:Latin Modern Mono;-inkscape-font-specification:Latin Modern Mono Bold"
       d="m 204.75523,295.61247 c 0,-1.67999 -1.68,-1.68 -2.256,-1.68 l -15.264,0 c -0.576,0 -2.256,10e-6 -2.256,1.68 0,1.68 1.68,1.68 2.256,1.68 l 15.264,0 c 0.576,0 2.256,0 2.256,-1.68" />
    <path
       inkscape:connector-curvature="0"
       id="path3097"
       style="font-size:48px;font-style:normal;font-variant:normal;font-weight:bold;font-stretch:normal;text-align:center;line-height:110.00000238%;letter-spacing:0px;word-spacing:0px;text-anchor:middle;fill:#000000;fill-opacity:1;stroke:none;font-family:Latin Modern Mono;-inkscape-font-specification:Latin Modern Mono Bold"
       d="m 246.98473,291.00447 0,-32.784 c 0,-0.576 0,-2.256 -1.68,-2.256 -1.68,0 -1.68,1.68 -1.68,2.256 l 0,32.784 c 0,0.576 0,2.256 1.68,2.256 1.68,0 1.68,-1.68 1.68,-2.256" />
    <path
       inkscape:connector-curvature="0"
       id="path3099"
       style="font-size:48px;font-style:normal;font-variant:normal;font-weight:bold;font-stretch:normal;text-align:center;line-height:110.00000238%;letter-spacing:0px;word-spacing:0px;text-anchor:middle;fill:#000000;fill-opacity:1;stroke:none;font-family:Latin Modern Mono;-inkscape-font-specification:Latin Modern Mono Bold"
       d="m 280.41148,295.61247 c 0,-1.67999 -1.68,-1.68 -2.256,-1.68 l -15.264,0 c -0.576,0 -2.256,10e-6 -2.256,1.68 0,1.68 1.68,1.68 2.256,1.68 l 15.264,0 c 0.576,0 2.256,0 2.256,-1.68" />
    <path
       inkscape:connector-curvature="0"
       id="path3101"
       style="font-size:48px;font-style:normal;font-variant:normal;font-weight:bold;font-stretch:normal;text-align:center;line-height:110.00000238%;letter-spacing:0px;word-spacing:0px;text-anchor:middle;fill:#000000;fill-opacity:1;stroke:none;font-family:Latin Modern Mono;-inkscape-font-specification:Latin Modern Mono Bold"
       d="m 322.64098,291.00447 0,-32.784 c 0,-0.576 0,-2.256 -1.68,-2.256 -1.68,0 -1.68,1.68 -1.68,2.256 l 0,32.784 c 0,0.576 0,2.256 1.68,2.256 1.68,0 1.68,-1.68 1.68,-2.256" />
    <path
       inkscape:connector-curvature="0"
       id="path3103"
       style="font-size:48px;font-style:normal;font-variant:normal;font-weight:bold;font-stretch:normal;text-align:center;line-height:110.00000238%;letter-spacing:0px;word-spacing:0px;text-anchor:middle;fill:#000000;fill-opacity:1;stroke:none;font-family:Latin Modern Mono;-inkscape-font-specification:Latin Modern Mono Bold"
       d="m 356.06773,295.61247 c 0,-1.67999 -1.68,-1.68 -2.256,-1.68 l -15.264,0 c -0.576,0 -2.256,10e-6 -2.256,1.68 0,1.68 1.68,1.68 2.256,1.68 l 15.264,0 c 0.576,0 2.256,0 2.256,-1.68" />
  </g>
</svg>
